<?xml version="1.0" encoding="utf-8"?>
<!-- Generator: Adobe Illustrator 26.0.2, SVG Export Plug-In . SVG Version: 6.00 Build 0)  -->
<svg version="1.1" xmlns="http://www.w3.org/2000/svg" xmlns:xlink="http://www.w3.org/1999/xlink" x="0px" y="0px"
	 viewBox="0 0 50 50" style="enable-background:new 0 0 50 50;" xml:space="preserve">
<style type="text/css">
	.st0{display:none;}
	.st1{fill:#D72800;}
	.st2{fill:#8AB126;}
	.st3{fill:#A2CB4D;}
	.st4{fill:#E9EA9A;}
	.st5{fill:#D8DB7F;}
	.st6{fill:#E0D9E0;}
	.st7{fill:#E5D5D4;}
	.st8{fill:#7EAA17;}
	.st9{fill:#81A50E;}
	.st10{fill:#8EBC28;}
	.st11{fill:#8CB927;}
	.st12{fill:#A4CA54;}
	.st13{fill:#E8EA97;}
</style>
<g id="Camada_1">
</g>
<g id="Camada_2" class="st0">
	
		<image style="display:inline;overflow:visible;" width="338" height="338" xlink:href="engracado-mao-desenhado-cobra-fundo_23-2148126605.jpg"  transform="matrix(0.1479 0 0 0.1479 1 0)">
	</image>
</g>
<g id="Camada_17">
	<path class="st1" d="M7.7,21c-0.9,1-2,0.6-3,1.3c-1.8,1.1-1.4,4.3-1.8,4.3c-0.2,0-0.6-1.3-0.2-2.6c0.4-1.3,1.6-2,3.9-3.4
		c1-0.6,1.4-0.7,1.5-0.6C8.3,20.1,8,20.6,7.7,21z"/>
	<path class="st1" d="M8.1,19.9c-0.1-0.3-0.6-0.5-1.1-0.4c-0.8,0.1-0.8,1-2,1.7c-0.6,0.4-0.7,0.2-1.5,0.6c-0.4,0.2-1.2,0.7-2,1.7
		c-0.6,0.8-1.1,2-0.9,2.1c0.1,0.1,0.6-0.2,2-1.7l0,0l0,0c1.3-1.1,1.9-1.6,2-1.7C6.7,20.7,8.2,20.4,8.1,19.9z"/>
</g>
<g id="Camada_10">
	<path class="st2" d="M20.7,33.8c-0.2,1.3-1.2,2.2-2.3,2.3c-0.9,0.1-1.9-0.4-2.3-1.2c-0.3-0.6-0.3-1.3,0-2.3c0.7-2.6,1.9-4,3.5-6.9
		c0.3-0.6,0.7-1.3,1.2-2.3c0.7-1.6,1.2-2.9,2.3-6.9c0.8-2.8,1.2-4.2,1.2-4.6c-0.3-2.7-2.7-5.1-4.6-5.8c-4-1.5-10.5,2.4-15,10.4
		c-0.1,0.2-0.6,1.3,0,2.3c0.4,0.7,1.6,1.2,2.5,1.2c0.5,0,0.9-0.1,0.9,0c0.1,0.2-1.2,0.7-1.2,1.2c0,0.7,2.6,1.3,4.6,1.2
		c4.5-0.4,7.3-5.4,8.1-6.9c0.1-0.3-0.6,2.4-2.3,4.6c-1.3,1.6-2.3,2.4-3.5,3.5C12,25,9.3,27.3,8,30.3c-0.6,1.3-2.5,6,0,10.4
		c0.3,0.4,2.1,3.6,5.8,4.6c4.4,1.2,9.6-1,12.7-5.8C24.5,37.6,22.6,35.7,20.7,33.8z"/>
</g>
<g id="Camada_11">
	<path class="st3" d="M11.4,33.8c0.3,0.2,0.8,0.2,1.2,0c0.7-0.3,0.8-1.3,1.2-2.3c0.3-0.8,0.9-1.7,2.3-3.5c1.7-2.3,2.5-2.8,2.3-3.5
		c-0.2-0.7-1.3-1.2-2.3-1.2C12.5,23.7,9.9,32.7,11.4,33.8z"/>
	<path class="st3" d="M14.9,8.4c0-0.7,2.5-1.9,4.6-1.2c1.6,0.6,2.2,2.1,2.3,2.3c0.2,0.5,0.6,1.6,0,2.3c-0.5,0.5-1.6,0.7-2.3,0
		c-0.6-0.6,0.5-1.8,0-2.3c-0.4-0.4-1.1,0.1-2.3,0C16.2,9.4,14.9,8.9,14.9,8.4z"/>
</g>
<g id="Camada_12">
	<path class="st4" d="M19.5,15.3c-0.9-0.1-1,2.9-3.5,5.8c-1.8,2.1-2.4,1.8-4.6,3.5c-4.7,3.6-4.6,10.1-4.6,11.6c0,2.1-0.1,4,1.2,5.8
		c2.7,4,8.7,3.5,9.2,3.5c1.7-0.2,3-0.9,5.8-2.3c0.4-0.2,1-0.5,1.2-1.2c0.3-1-0.9-2.1-1.2-2.3c-0.8,0.4-2,0.8-3.5,1.2
		c-2.3,0.5-4.2,0.9-5.8,0c-1.6-1-2.1-2.8-2.3-3.5c-0.8-2.7,0.3-5.2,1.2-6.9c2-4.4,5.8-8.1,5.8-8.1c1-1,2.1-1.9,2.3-3.5
		C20.9,17.1,20.2,15.3,19.5,15.3z"/>
</g>
<g id="Camada_13">
	<path class="st5" d="M19.5,15.3c0.1,0-0.3,1.5-1.2,3c-0.3,0.5-0.6,1-1.1,1.6c-0.8,0.9-1.8,1.6-2.7,2.2c0,0,0,0,0,0
		c-1,0.7-1.8,1.2-1.9,1.2c-0.4,0.2-4.1,2.7-5.8,6.9C5.5,33.6,5.1,38.8,8,41.9c1.2,1.3,2.9,2.1,3.5,2.3c1.7,0.8,4.6,1.2,5.8,1.2
		c1.2,0,0.6,0.1,1.2,0c1.1-0.2,5.8-2.3,4.6-2.3c-1.4-0.2-5.7,0.6-8.1,0c-3.2-0.8-4.8-1.3-5.8-2.3c-2.1-2.3-1.5-6-1.2-8.1
		c0.2-1.4,0.6-3.7,2.3-5.8c1.6-2,2.6-1.7,4.6-3.5C18.7,20,19.4,15.2,19.5,15.3z"/>
</g>
<g id="Camada_14">
	<path class="st5" d="M21.8,44.2c-0.5,0.3-1.3,0.8-2.3,1.2c-3,1-6.6,0.7-9.2-1.2c-1.4-0.9-2.2-2.1-2.3-2.3c-0.6-0.9-1-1.7-1.2-2.3
		c0.8,0.9,2.3,2.4,4.6,3.5c2.7,1.2,5.1,1.2,5.8,1.2c3.2-0.1,5.6-1.5,5.8-1.2C23,43.1,22.9,43.4,21.8,44.2z"/>
</g>
<g id="Camada_15">
	<circle class="st6" cx="14.9" cy="13" r="2.3"/>
	<circle class="st7" cx="10.3" cy="11.8" r="2.3"/>
	<path class="st8" d="M7.4,18.9c-0.2,0.2-0.1,0.6,0,0.6C7.6,19.6,8,19.1,8,18.9C7.9,18.8,7.6,18.7,7.4,18.9z"/>
	<path class="st8" d="M6.6,18.6c-0.2,0.2-0.1,0.6,0,0.6c0.2,0.1,0.7-0.4,0.6-0.6C7.1,18.4,6.8,18.3,6.6,18.6z"/>
</g>
<g id="Camada_16">
	<circle cx="14.9" cy="14.1" r="1.2"/>
	<circle cx="10.3" cy="13" r="1.2"/>
</g>
<g id="Camada_18">
	<path class="st1" d="M6.8,19.9c1.5,0,2.7-0.2,3.6-0.5c1-0.2,1.8-0.5,2.2-0.7c0.9-0.4,1.7-0.8,2.3-1.2c-0.3,0.4-0.6,0.8-1.2,1.2
		c-1.1,0.8-2.1,0.9-3.5,1.2c-0.8,0.2-2,0.5-3.5,1.2C6.8,20.7,6.8,20.3,6.8,19.9z"/>
	<polygon class="st6" points="9.5,19.5 10.1,20.1 10.5,19.4 	"/>
	<polyline class="st6" points="7.7,19.8 6.7,19.9 7.3,20.5 	"/>
</g>
<g id="Camada_3">
	<path class="st9" d="M48.4,25.7c0.8,1.9,1,3.5,1.2,4.6c0,0,0.7,5.4-2.3,10.4c-0.7,1.2-1.4,1.9-2.3,2.3c-0.1,0-2.2,1-3.5,0
		c-0.6-0.5-0.7-1.1-1.2-1.2c-0.5,0-0.6,0.6-1.2,1.2c-1.1,1-3.4,1-4.6,0c-0.7-0.6-0.7-1.1-1.2-1.2c-0.8-0.1-0.9,1.6-2.3,2.3
		c-1.2,0.7-2.6,0.2-3.5,0c-0.5-0.1-1.9-0.6-3.5-2.3c-2.8-3-3.3-7.3-3.5-9.2c-0.3-2.5-1-9.5,3.5-15c0.6-0.8,1.1-1.8,2.3-2.3
		c1.4-0.6,2.9-0.2,3.5,0c1.1,0.3,1.9,0.8,2.3,1.2c0.3,0.4,0.9,1.2,1.2,2.3c0.2,1,0.1,1.8,0,2.3c0.6-1.4,2-2.3,3.5-2.3
		c2.3,0,3.4,2.2,3.5,2.3c0.8,1.7,0.1,3.2,0,3.5c0.3-0.4,1.3-1.3,2.3-1.2c1.4,0.2,2,2.4,2.3,3.5c1.2,4.4-0.9,9-2.3,11.6
		c-0.1,0.5-0.2,1,0,1.2c0.6,0.4,2.7-1.5,3.5-2.3C49.1,34.1,48.9,28.9,48.4,25.7z"/>
</g>
<g id="Camada_5">
	<path class="st10" d="M38,38.4c-0.2,0.3-1.1,1.1-2.3,1.2c-1.6,0-3.1-1.4-3.5-3.5c-0.6-1.6-1.3-4-1.2-6.9c0.1-1.3,0.3-5.7,3.5-9.2
		c0.4-0.5,0.9-0.9,1.2-1.2c1.2-0.4,2-0.1,2.3,0c1.8,0.7,2.2,2.8,2.3,3.5c0.2,1,0.1,1.8,0,2.3c-0.5,0.2-3.7,1.9-4.6,5.8
		C34.6,34.8,37.8,38.2,38,38.4z"/>
</g>
<g id="Camada_8">
	<path class="st11" d="M41.5,24.5c-0.6,2.4-1,4.4-1.2,5.8c-0.6,4.5-1,8.3,1.2,10.4c0.3,0.3,1.1,1.1,2.3,1.2c2.4,0.1,4.2-2.8,4.6-3.5
		c3.3-5.4,0.5-12.8,0-12.7c-0.3,0,0,2.6-1.2,6.9c-0.1,0.5-0.9,1.8-2.3,4.6c-0.2,0.3-0.5,0.9-1.2,1.2c-0.5,0.2-0.9,0.1-1.2,0
		c0.7-1.1,1.8-3.1,2.3-5.8c0.2-1,0-3.2,0-5.8c0-1.2-0.2-1-1.2-2.3c-1-1.3,0-1.2-1.2-1.2C42,23.4,41.5,24.5,41.5,24.5z"/>
</g>
<g id="Camada_9">
	<path class="st11" d="M42.6,23.4c0.3-0.1,0.7-0.2,1.2,0c0.6,0.3,0.9,0.9,1.2,2.3c0.5,2.9,0,4.6,0,5.8c0,1,0,3.5-1.2,3.5
		C43.4,34.9,42.9,32.8,42.6,23.4z"/>
</g>
<g id="Camada_7">
	<path class="st11" d="M43.8,24.5c-0.8-0.1-1.6,3.1-2.3,5.8c-1.4,5.6-0.5,7.4,0,8.1c0.4,0.6,0.8,0.9,1.2,1.2
		c0.9-1.5,1.9-3.9,2.3-6.9C45.4,28.9,44.7,24.6,43.8,24.5z"/>
</g>
<g id="Camada_4">
	<path class="st12" d="M27.6,19.9c-0.6,1-1.5,2.6-2.3,4.6c-1.4,3.5-2.7,6.9-1.2,9.2c0.3,0.5,1.4,1.9,4.6,2.3
		C28.4,30.7,28,25.3,27.6,19.9z"/>
	<path class="st12" d="M35.7,24.5c-0.6,0.7-1.5,1.9-2.3,3.5c-0.9,1.8-2.5,5.1-1.2,6.9c0.7,1,2.3,1.6,3.5,1.2c0.7-0.3,1-0.9,1.2-1.2
		C38.4,32.1,36,25.5,35.7,24.5z"/>
</g>
<g id="Camada_6">
	<path class="st13" d="M29.9,15.3c-2.2,2.8-3.1,5.3-3.5,6.9c-2.6,10.3,5.2,19.1,5.8,19.6c0.5,0.5,2,0.9,2.3,1.2
		c-0.9-1.5-1.3-1.3-1.2-1.2c-0.7-0.7-1.6-1.8-2.3-3.5c-0.3-0.7,0-2.9,0-10.4c0-1.2,0.6-2.2,1.2-4.6c1.2-1.2,1.8-4.2,1.2-5.8
		C32.8,16.2,31.4,15.4,29.9,15.3z"/>
	<path class="st13" d="M40.3,41.9c-1.8-1.3-2.8-2.6-3.5-3.5c0,0-5.4-7.6,0-18.5c0.3-0.6,0.6-1.1,1.2-1.2c0.9-0.1,1.9,1.3,2.3,2.3
		c0.4,0.9,1.2,2.3,0,3.5c-1.5,1.5-0.6,3.1-1.2,4.6C38.4,31.1,38.2,34.7,40.3,41.9z"/>
</g>
</svg>
