<?xml version="1.0" encoding="utf-8"?>
<!-- Generator: Adobe Illustrator 26.0.2, SVG Export Plug-In . SVG Version: 6.00 Build 0)  -->
<svg version="1.1" xmlns="http://www.w3.org/2000/svg" xmlns:xlink="http://www.w3.org/1999/xlink" x="0px" y="0px"
	 viewBox="0 0 1920 1080" style="enable-background:new 0 0 1920 1080;" xml:space="preserve">
<style type="text/css">
	.st0{display:none;}
	.st1{opacity:0.47;fill:#430055;}
	.st2{fill:#1C002A;}
	.st3{fill:#BA5D1E;}
	.st4{fill:#D98236;}
	.st5{fill:#DA8034;}
	.st6{fill:#8B420C;}
	.st7{fill:#FA9B45;}
	.st8{fill:#BD5D1F;}
	.st9{fill:#DF863E;}
	.st10{fill:#BD5D1B;}
	.st11{fill:#4B4105;}
	.st12{fill:#B49423;}
	.st13{fill:#A92B17;}
	.st14{fill:none;}
	.st15{fill:#685611;}
	.st16{fill:#3F2E03;}
	.st17{fill:#1C0700;}
</style>
<g id="Camada_13" class="st0">
	
		<image style="display:inline;overflow:visible;" width="216" height="233" xlink:href="images.jpg"  transform="matrix(4.6515 0 0 4.6515 457.6378 -1.9)">
	</image>
	
		<image style="display:inline;overflow:visible;" width="338" height="338" xlink:href="vista-superior-mao-desenhada-cobra-fundo_23-2148127774.jpg"  transform="matrix(1 0 0 1 1727.16 -484.68)">
	</image>
	
		<image style="display:inline;overflow:visible;" width="800" height="800" xlink:href="conceito-furioso-do-logotipo-do-vetor-do-esporte-da-cobra-isolado-no-fundo-caqui-88366459.jpg"  transform="matrix(0.24 0 0 0.24 1212.64 -507.68)">
	</image>
</g>
<g id="Camada_12">
	<ellipse class="st1" cx="954.9" cy="534.8" rx="536.7" ry="534.8"/>
	<ellipse class="st2" cx="978.9" cy="1044" rx="361" ry="36"/>
</g>
<g id="Camada_8">
	<g id="Camada_11">
		<path class="st3" d="M685.9,864.6c-13.7-1.5-24.3-14.6-27.8-26.3c-10.9-36.7,43.2-74.6,45.8-76.1c12.8-7.2,25-9.9,33.3-11.1
			c13.5-1.9,21.8,12.4,26.4,18c5.2,6.4,13.2,16.2,9.7,24.9c-2.5,6.2-9.5,8.8-12.5,9.7c-6.2-15.5-20-26-34.7-26.3
			c-17.7-0.4-28.9,14.1-31.9,18c-3,3.8-13.1,16.8-9.7,30.4c4.1,16.8,25.1,20.3,23.6,29.1C707,861.2,695.4,865.6,685.9,864.6z"/>
	</g>
	<path class="st4" d="M740.1,758.1c-0.9,8.2,36.6,22.2,33.3,36c-1.4,5.9-9.6,8.7-12.5,9.7c-31.5,11.1-100,55.4-101.4,85.8
		c-1.6,36.4,92.1,73.8,101.4,77.5c36.5,14.3,69.1,18.2,80.5,44.3c5,11.3,4.2,22.7,2.8,30.4c64.3,0.5,128.7,0.9,193,1.4
		c-0.9-2.8-3.8-13.3,1.4-24.9c6.4-14.3,20.1-18.7,22.2-19.4c36.6-24,73.1-48,109.7-72c-26.4-64.1-52.8-128.2-79.1-192.3
		c-3.7,6-7.4,12-11.1,18C889.4,743.9,741.8,742.2,740.1,758.1z"/>
	<path class="st5" d="M1067.8,787.1c65.3,125.6,59.8,117.8,65.3,125.9c46.6,68.8,86.6,100.5,104.1,113.5
		c22.9,16.8,53.8,39.1,69.4,29.1c14.6-9.4,8.5-42.5,4.2-66.4c-4.8-26.2-11.8-64.3-41.7-89.9c-10.9-9.4-23.9-16.2-22.2-23.5
		c1.5-6.5,13.9-10.7,23.6-11.1c12.1-0.4,16.2,5.3,20.8,2.8c8.7-4.8,6.9-31.8-4.2-51.2c-3.5-6.2-17.8-30.5-43-33.2
		c-12.4-1.3-28.9,2.3-31.9,11.1c-2.6,7.3,5.1,16,4.2,16.6c-2.1,1.4-22.2-26.3-22.2-26.3c-6.9-9.4-79.8-108.2-125-94.1
		c-12.2,3.8-18.3,14.5-19.4,16.6C1037.3,728.7,1052.7,758.1,1067.8,787.1z"/>
	<path class="st6" d="M741.5,960.1c6.7-8.1,18-19.2,33.3-20.8c31.4-3.2,49.5,37.1,79.1,31.8c14.7-2.6,12-12.8,33.3-23.5
		c23-11.5,58.6-15.9,83.3,0c19.3,12.4,20,29.4,34.7,30.4c13.2,0.9,20.1-12.4,33.3-20.8c15.4-9.7,42-14.4,91.6,6.9
		c-31.9,18.4-63.9,36.9-95.8,55.3c-63.9,0-127.7,0-191.6,0C809,999.7,775.2,979.9,741.5,960.1z"/>
	<path class="st7" d="M777.6,854.9c3.1,7.6,15.4,9.6,91.6,6.9c64-2.3,85.9-4.8,88.9-15.2c1.5-5.2-1.7-12.4-6.1-16.7
		c-6.5-6.3-16.3-5.7-20.3-5.5c0,0-3.8,0.2-73.6-1.4c-38.1-0.9-46.4-8.7-61.1,0C784.9,830.3,773.7,845.5,777.6,854.9z"/>
	<path class="st8" d="M776.2,767.7c5.1,10.1,10.2,20.3,15.3,30.4c61.1,3.2,122.2,6.5,183.3,9.7c5.6-8.8,11.1-17.5,16.7-26.3
		C919.7,777,847.9,772.4,776.2,767.7z"/>
	<path class="st9" d="M1070.6,770.4c-4.4,1.8,13.6,75.1,62.6,143.6c12.6,17.6,24.8,31.5,34.4,41.5c-9.6-19.8-23.5-48.3-41-82.3
		C1091.1,804,1073.3,769.3,1070.6,770.4z"/>
	<g id="Camada_10">
		<path class="st10" d="M1199.7,871.5c10.8,14.4,27.3,34.7,50,56.7c15.4,14.9,44.3,43,50,38.7c4-3-2.2-23.4-52.8-105.2
			c-9.6-11-24.3-14-34.7-8.3C1202.5,858.8,1200.1,869.6,1199.7,871.5z"/>
		<path class="st10" d="M1067.9,759.8c-0.3-13.9-9.5,47.9,11.8,97.6c20.1,47.1,34,83.3,49.8,106.5c7.9-3.7,15.8-7.4,23.7-11
			c4.1-14.9-15-40.1-29.4-66.5C1085.4,816.5,1068.3,774.8,1067.9,759.8z"/>
	</g>
</g>
<g id="corpo">
	<path class="st11" d="M954.8,746.1c0.1-5.6-0.7-13.3-5.4-20.3c-10.5-15.6-33.5-17.2-55.7-18.4c-30.6-1.7-33.6,4.8-50,0
		c-18.4-5.4-39.4-21-40.7-38.7c-1.7-21.8,27-40.2,38.9-48c0,0,91.3-59.9,172.2-143.9c59.4-61.7,79.9-122,103.7-191.9
		c6.9-20.3,14.8-47.4,7.4-79.3c-10.1-43.7-41.9-67.5-48.1-72c-11.3-8.1-41.9-30.1-68.5-20.3c-15.9,5.9-17.3,18.4-38.9,46.1
		c-15.1,19.4-32.8,42.3-57.4,55.3c-24.2,12.9-52.6,11.7-109.2,9.2c-50.8-2.2-63.2-7.9-79.6,1.8c-23,13.7-38.9,45-33.3,72
		c5.6,26.6,30.4,41,64.8,60.9c29,16.8,45.6,19.1,87,44.3c25.9,15.7,30.5,21.5,33.3,27.7c12.8,28.1-12.1,64.6-25.9,84.9
		c-33.7,49.4-60,51.5-100,108.9c-22.2,31.9-24.8,46.7-22.2,59c5.3,24.6,31.9,41.3,42.6,48c4.8,3,16.4,9.8,33.3,14.8
		C858,762.1,937.5,749.1,954.8,746.1z"/>
</g>
<g id="Camada_16">
	<path class="st12" d="M881.4,752.6c0.9-4.1-32-6.7-61.1-36.9c-9.8-10.1-28.7-29.8-25.9-51.7c2.3-17.5,16.9-24,55.5-53.5
		c3.7-2.9,27.8-23.4,75.9-64.6c41.9-35.8,51.7-45.5,61.1-62.7c11.9-22,21.8-54,11.1-62.7c-5.6-4.6-11.6,1.5-33.3,3.7
		c-32.5,3.3-43.1-7.7-57.4,1.8c-10.3,6.9-14.9,19.3-16.7,24c-4,10.8-3.7,19.8-3.7,22.1c-0.3,35.8-102.1,84.6-137,164.2
		c-6.9,15.7-21.6,49.3-7.4,77.5C769.5,767.5,879.8,760.1,881.4,752.6z"/>
</g>
<g id="Camada_9">
	<path class="st13" d="M897.4,372.5c0.5,9.7,1,24.5,0,42.4c-2,35.5-3.1,55.7-15.7,62.7c-9.7,5.4-20.5,0.1-34.2,10.1
		c-3.6,2.6-7.8,6.6-8.6,5.8c-0.8-0.7,1.4-5.2,4.6-8.6c3.8-4,7.9-5.3,7.7-5.8c-0.4-1-14.1,4.2-14.8,2.8c-0.5-1.1,6.6-7.4,15.7-8.9
		c2.9-0.5,3.8-0.1,10.5-0.9c5.4-0.7,8.1-1,9.9-1.8c4.2-2,5.9-5.8,8.9-12.3c1.7-3.7,4.7-10.4,5.2-19.7c0.1-1.9,0-2.2-0.9-13.2
		c-1-12.3-1.6-18.5-1.5-21.8c0-9.1,1.1-8.9,0.6-15.7c-0.5-6.1-1.5-8.3-0.9-13.2c0.1-1,1.3-11.1,5.2-11.7
		C891.8,362.2,895.3,366.4,897.4,372.5z"/>
</g>
<g id="Camada_5">
</g>
<g id="Camada_4">
	<line class="st14" x1="891.9" y1="450.9" x2="991.9" y2="450.9"/>
	<line class="st14" x1="973.3" y1="485.9" x2="891.9" y2="476.7"/>
	<line class="st14" x1="991.9" y1="450.9" x2="891.9" y2="450.9"/>
	<line class="st14" x1="973.3" y1="485.9" x2="891.9" y2="476.7"/>
	<line class="st14" x1="919.7" y1="550.5" x2="864.1" y2="519.1"/>
	<line class="st14" x1="884.3" y1="575.3" x2="854.9" y2="533.3"/>
	<line class="st14" x1="856.7" y1="587.4" x2="830.8" y2="554.3"/>
	<line class="st14" x1="803" y1="570.9" x2="836.3" y2="605.8"/>
	<path class="st15" d="M1077,133.5c-5.4-5.6-20.4-19.1-43.1-21.6c-6-0.7-19.3-2.1-32,4.6c-14.1,7.5-18.2,20.2-25.7,33.9
		c-14.5,26.6-38,50.6-61.3,62.7c-20.4,10.6-39,11.3-67.5,12.3c-42.9,1.5-74.2-3.4-74.2-3.4c-15.1-2.4-24.6-5-37.5-1
		c-18.6,5.7-30.2,20.5-32.7,23.9c-5.5,7.4-8.2,14.2-9.8,18.4c-3.3,8.7-7.1,23-4.3,24.3c3.4,1.6,9.5-19.4,28-31.4
		c23.7-15.4,61.7-12.2,76.8,6.5c4.5,5.6,2.9,7.4,8.3,24.9c9.5,30.6,23,51.8,30.5,63.7c12.5,19.5,18.8,29.3,29.6,36
		c21.2,13,44.3,10.4,54.6,9.2c15.5-1.8,29.2-3.3,38-13.8c8.7-10.4,7.9-24.1,6.5-49.8c-0.2-2.7-0.4-5.3-4.6-37.8
		c-4.1-31.1-4.3-31.8-3.7-35.1c1.9-10.1,5.7-11.1,28.7-43.4c11.1-15.6,16.6-23.3,19.4-28.6c8.9-16.6,8.8-23.3,16.7-27.7
		c6.1-3.4,14.2-2.3,30.5,0c13.1,1.8,19.6,2.7,26.8,6.5c16.3,8.4,20.6,22.4,23.1,21.2C1101.9,186.3,1098.4,155.4,1077,133.5z"/>
</g>
<g id="Camada_6">
	<path class="st16" d="M788.4,223.8c-2.8,7.2,27.9,13.9,51.6,47.1c11,15.4,14.6,28.1,30.5,36c3.6,1.7,16.5,8.1,26.4,2.8
		c6.9-3.7,7.8-10.6,13.9-33.2c7.7-28.5,11.5-42.8,16.7-49.8c6.5-9,13-13.1,20.8-27.7c2.9-5.3,8.3-15.4,5.9-17.5
		c-3.8-3.3-19.6,19-49,31.4c-20.8,8.7-40.4,9.1-66.6,9.7C805.7,223.3,790.4,218.7,788.4,223.8z"/>
</g>
<g id="Camada_7">
	
		<ellipse transform="matrix(0.2875 -0.9578 0.9578 0.2875 297.0099 1053.3772)" class="st17" cx="856.5" cy="327.1" rx="7.3" ry="13.5"/>
	
		<ellipse transform="matrix(0.5028 -0.8644 0.8644 0.5028 187.3853 954.3765)" class="st17" cx="923.4" cy="314.3" rx="13.2" ry="8.1"/>
	<ellipse class="st17" cx="889.2" cy="368" rx="2.7" ry="2.7"/>
	<ellipse class="st17" cx="917.2" cy="365.3" rx="2.7" ry="2.7"/>
</g>
</svg>
