<?xml version="1.0" encoding="utf-8"?>
<!-- Generator: Adobe Illustrator 26.0.2, SVG Export Plug-In . SVG Version: 6.00 Build 0)  -->
<svg version="1.1" xmlns="http://www.w3.org/2000/svg" xmlns:xlink="http://www.w3.org/1999/xlink" x="0px" y="0px"
	 viewBox="0 0 50 50" style="enable-background:new 0 0 50 50;" xml:space="preserve">
<style type="text/css">
	.st0{fill:#A92D2B;}
	.st1{fill:#C24942;}
	.st2{fill:#A38A77;}
	.st3{fill:#578909;}
	.st4{fill:#65990A;}
</style>
<g id="Camada_1">
</g>
<g id="Camada_2">
	<path class="st0" d="M15.4,13.1c-0.4,0-4.5,0.6-7.4,3.3c-7.4,7-1.7,23.2,3.7,29.5c1.1,1.3,3.3,3.8,6.4,4.1c1.7,0.2,1.9-0.5,4.9-0.6
		c2.4-0.1,2.9,0.3,6.4,0.4c2,0,3,0.1,4.1-0.2c2.6-0.6,4.3-2.3,5.3-3.3c2.9-2.9,6.8-8.9,7.2-17c0.1-3.5,0.3-7.9-2.7-11.9
		c-2.1-2.8-4.8-4.1-6.4-4.7c-4.5,2.4-8.1,2.6-10.4,2.5C21.8,14.8,19.8,12.6,15.4,13.1z"/>
	<path class="st1" d="M29.5,17.6c0.3-0.6,2.3,0.2,4.9-0.8c1.3-0.5,2.3-1.3,2.9-1.8c1.3,1.3,3.6,4.1,4.7,8.2
		c1.8,6.7-0.7,12.2-1.4,13.7c0.1-3.6-0.5-8.1-3.3-11.9C34.2,20.9,29.1,18.6,29.5,17.6z"/>
	<path class="st2" d="M25,15c0.5-2.7,0.9-4.7,0.9-4.9c0-0.1,0.1-0.2,0.1-0.2c0,0,0.1-0.1,0.1-0.3c0.1-0.2,0.6-1.2,1.3-2.6
		c1,0.3,1.9,0.5,2.9,0.8c-0.6,0.4-1.7,1.4-2.5,3.1c-0.9,2.1-0.6,4.1-0.4,4.7C26.7,15.4,25.9,15.2,25,15z"/>
	<path class="st3" d="M26,10c-0.8,1.9-5.5,2.4-8.5,0.8c-1.9-1-2.2-2.2-4.9-4.3C10.7,5.2,9,4.4,7.8,3.9c0.9-0.8,4-3.5,8.2-3.3
		C22.2,1,27.1,7.6,26,10z"/>
	<path class="st4" d="M26.1,9.8c0.7-0.7-1.3-5.5-5.5-7.8c-0.5-0.3-4.4-2.3-8.8-0.7C9.8,2.1,8.5,3.2,7.8,3.9c2.5,0,6,0.2,9.8,1.6
		C22.9,7.5,25.4,10.5,26.1,9.8z"/>
</g>
</svg>
