<?xml version="1.0" encoding="utf-8"?>
<!-- Generator: Adobe Illustrator 26.0.2, SVG Export Plug-In . SVG Version: 6.00 Build 0)  -->
<svg version="1.1" xmlns="http://www.w3.org/2000/svg" xmlns:xlink="http://www.w3.org/1999/xlink" x="0px" y="0px"
	 viewBox="0 0 1920 1080" style="enable-background:new 0 0 1920 1080;" xml:space="preserve">
<style type="text/css">
	.st0{display:none;}
	.st1{fill:#BA68C8;}
	.st2{fill:#9F00C9;}
	.st3{fill:#3D003F;}
	.st4{fill:#D27FFF;}
	.st5{fill:#FACB23;}
	.st6{fill:#F5AA12;}
	.st7{fill:#EFA300;}
	.st8{fill:#FFEC90;}
	.st9{fill:#BD4134;}
	.st10{fill:#BC7158;}
	.st11{fill:#8E4E3A;}
	.st12{fill:#814835;}
	.st13{fill:#C07559;}
	.st14{fill:#E1AFA6;}
	.st15{fill:#C44E4A;}
	.st16{fill:#A9BACE;}
	.st17{fill:#8695AD;}
	.st18{fill:#7D8FA8;}
	.st19{fill:#A9BACD;}
	.st20{fill:#DCD5DE;}
	.st21{fill:#E1AA9B;}
	.st22{fill:#C8D8EC;}
	.st23{fill:#AF503B;}
	.st24{fill:#CBB10F;}
	.st25{fill:#550B00;}
	.st26{fill:#2B2B2B;}
	.st27{fill:#FFFFFF;}
</style>
<g id="Camada_1" class="st0">
	<g id="Camada_1_00000081628696891802404120000000768306197165031064_">
		
			<image style="display:inline;overflow:visible;enable-background:new    ;" width="564" height="968" xlink:href="DDBD54B7.jpeg"  transform="matrix(1 0 0 1 678 56)">
		</image>
	</g>
	
		<image style="display:inline;overflow:visible;" width="626" height="400" xlink:href="ganhar.jpg"  transform="matrix(2.6479 0 0 2.7 75.48 0)">
	</image>
</g>
<g id="Camada_2">
	<rect x="371.2" y="804.4" class="st1" width="339.1" height="164.2"/>
	<rect x="1098" y="839" class="st1" width="339.1" height="129.6"/>
	<rect x="710.3" y="702.9" class="st2" width="387.7" height="265.7"/>
	<path class="st3" d="M699.5,808.2H365.8c-6,0-10.8-4.8-10.8-10.8v-3.8c0-6,4.8-10.8,10.8-10.8h333.7c6,0,10.8,4.8,10.8,10.8v3.8
		C710.3,803.3,705.5,808.2,699.5,808.2z"/>
	<path class="st3" d="M1100.6,675H701.1c-6,0-10.8,4.8-10.8,10.8v6.3c0,6,4.8,10.8,10.8,10.8h399.4c6,0,10.8-4.8,10.8-10.8v-6.3
		C1111.4,679.8,1106.5,675,1100.6,675z"/>
	<path class="st3" d="M1434.5,846.2h-333.7c-6,0-10.8-4.8-10.8-10.8v-3.8c0-6,4.8-10.8,10.8-10.8h333.7c6,0,10.8,4.8,10.8,10.8v3.8
		C1445.3,841.4,1440.4,846.2,1434.5,846.2z"/>
</g>
<g id="pontos_de_luz">
	<path class="st4" d="M729.6,778c0,1.1-0.2,2.3-0.5,3.4c-2,8.8-3.2,19.8-0.1,28.4c0.7,1.9,2.1,5.5,4.3,5.8c2.8,0.4,5.8-2.2,5.8-5.8
		V788c0-1.2,0.1-2.5,0.4-3.7c0.3-1.1,1-5.1,0.2-6.9c-0.8-1.9-1-2.7-3.3-4c-0.5-0.3-2.3,0.3-2.8,0c-1.2-0.8-1.7,1.2-2.8,2
		C730.1,776,729.6,777,729.6,778z"/>
	<path class="st4" d="M730.3,765.5c-0.1-13-0.2-25.9-0.4-38.9c0.6-1.4,1.9-4.1,4.9-6.3c5-3.7,10.6-2.7,11.7-2.5
		c26.3,0.1,52.7,0.1,79,0.2c4.3-0.1,8.5-0.1,12.8-0.2c1.5,0.2,2.7,1.1,3.1,2.3c0.5,1.7-0.8,4-3.2,4.5c-30.1,0.1-60.2,0.1-90.4,0.2
		c-0.6,0-4.3-0.2-7.2,2.7c-3,3-2.9,6.8-2.9,7.4c0,9.8,0,19.7,0,29.5c0.1,2.1-1.5,3.8-3.4,4C732.5,768.6,730.8,767.3,730.3,765.5z"/>
	<path class="st4" d="M386.1,881.3c0,1.1-0.2,2.3-0.5,3.4c-2,8.8-3.2,19.8-0.1,28.4c0.7,1.9,2.1,5.5,4.3,5.8
		c2.8,0.4,5.8-2.2,5.8-5.8v-21.8c0-1.2,0.1-2.5,0.4-3.7c0.3-1.1,1-5.1,0.2-6.9c-0.8-1.9-1-2.7-3.3-4c-0.5-0.3-2.3,0.3-2.8,0
		c-1.2-0.8-1.7,1.2-2.8,2C386.5,879.3,386.1,880.3,386.1,881.3z"/>
	<path class="st4" d="M386.7,868.8c-0.1-13-0.2-25.9-0.4-38.9c0.6-1.4,1.9-4.1,4.9-6.3c5-3.7,10.6-2.7,11.7-2.5
		c26.3,0.1,52.7,0.1,79,0.2c4.3-0.1,8.5-0.1,12.8-0.2c1.5,0.2,2.7,1.1,3.1,2.3c0.5,1.7-0.8,4-3.2,4.5c-30.1,0.1-60.2,0.1-90.4,0.2
		c-0.6,0-4.3-0.2-7.2,2.7c-3,3-2.9,6.8-2.9,7.4c0,9.8,0,19.7,0,29.5c0.1,2.1-1.5,3.8-3.4,4C388.9,871.9,387.2,870.7,386.7,868.8z"/>
	<path class="st4" d="M1114.7,913.5c0,1-0.2,2-0.4,3c-1.7,7.7-2.8,17.4-0.1,24.9c0.6,1.7,1.8,4.8,3.8,5c2.4,0.3,5.1-1.9,5-5v-19.1
		c0-1.1,0.1-2.2,0.3-3.2c0.2-1,0.9-4.5,0.2-6.1c-0.7-1.6-0.9-2.4-2.9-3.5c-0.4-0.2-2.1,0.3-2.5,0c-1-0.7-1.5,1.1-2.4,1.8
		C1115.1,911.7,1114.7,912.6,1114.7,913.5z"/>
	<path class="st4" d="M1115.3,902.6c-0.1-11.3-0.2-22.7-0.3-34c0.5-1.2,1.7-3.6,4.3-5.5c4.4-3.2,9.3-2.4,10.2-2.2
		c23.1,0.1,46.1,0.1,69.2,0.2c3.7-0.1,7.5-0.1,11.2-0.2c1.3,0.2,2.4,1,2.7,2c0.4,1.5-0.7,3.5-2.8,3.9c-26.4,0.1-52.7,0.1-79.1,0.2
		c-0.5,0-3.7-0.1-6.3,2.4c-2.7,2.6-2.5,6-2.5,6.5c0,8.6,0,17.2,0,25.8c0.1,1.8-1.3,3.3-3,3.5
		C1117.2,905.2,1115.7,904.2,1115.3,902.6z"/>
</g>
<g id="taça">
	<path class="st5" d="M881,621.9c-10.8,5-26.7,12.1-46.4,19.4c-39.7,14.7-66.3,19.8-67,31.3c-0.2,2.5,0.9,6.1,6.5,10.8
		c86,0,172.1,0,258.1,0c3.9-2.8,9.5-7.5,8.6-11.9c-1.1-5.8-12.8-7.9-16.2-8.6c-15-3.1-44.7-13.6-105.8-42.1
		C906.2,621.2,893.6,621.5,881,621.9z"/>
</g>
<g id="Camada_5">
	<path class="st6" d="M882,551.7c3.4-2.9,9.3,2.3,22.7,3.2c9.6,0.7,17.8-1.2,23.8-3.2c-3.2,6.2-9,19.3-8.6,36.7
		c0.5,21.4,10,36.5,14,42.1c-0.3,2.1-3.1,18.4-16.2,24.8c-14.2,7-35.5,0-46.4-19.4c9.2-10.5,18.3-24.9,18.4-42.1
		C889.6,573,876.4,556.5,882,551.7z"/>
</g>
<g id="Camada_6">
	<path class="st7" d="M1047.3,400.5c7.7,0.5,36.2,1.5,62.6-18.4c32.8-24.7,36.3-62.2,36.7-68c0.7-10.8-0.9-16-0.2-38
		c1.1-2.8-28-1.2-24,0c0.3,6.8,1.5,25-15.8,42.3c-21.5,21.5-47,29.5-50,29.5c0.7-9,1.8-21.6,2.5-30.6c6-1.8,19.3-6.7,30.2-19.4
		c13.3-15.5,15.2-33.2,15.3-42.4c0-2.9,2.4-5.2,5.2-5.2h56.1c2.6,0,4.9,1.8,5.6,4.3c4.3,16.6,12.9,62.4-12,109.1
		c-37.2,69.8-115.8,78.3-122,78.8C1040.8,428.6,1044,414.5,1047.3,400.5z"/>
	<path class="st6" d="M763.9,399.4c-10.6,0.5-38.3,0.3-62.6-18.4c-27.2-20.9-35.8-51.8-36.7-68c-0.5-10.2-1.1-20.3-1.6-30.5
		c-0.3-5.3,4.5-9.6,9.7-8.6c3.4,0.6,6.7,1.4,10.2,1.9c4,0.6,7,4,7,8c0,3.4,0.5,7.5,1.8,12.1c3,10.5,8.9,17.1,12.8,21.4
		c11.6,12.6,26.9,19.3,38,22.9c5.6,1.8,11.2-2.7,10.7-8.6c-0.3-3.3-0.5-6.6-0.8-10c-0.3-3.2-2.3-5.9-5.2-7
		c-6.8-2.6-16.8-7.8-25.5-17.8c-12.1-14.1-14.8-30-15.2-39.7c-0.2-4.4-3.9-7.8-8.3-7.8h-51c-3.9,0-7.3,2.7-8.1,6.5
		c-4.6,20.9-10.2,64.4,12.3,106.9c32.4,61.2,108.4,92.8,122,78.8C777.8,437.3,778.4,426.7,763.9,399.4"/>
</g>
<g id="Camada_7">
	<path class="st6" d="M749.2,280.6c-3.4,28.5-4,64.6,4.3,104.8c8.4,40.7,23.6,113.7,86.4,152.3c14,8.6,45.3,27.8,83.2,22.7
		c86.4-11.7,141.5-141.4,139.3-240.8c-0.3-15-1.9-27.3-3.2-35.6C955.8,282.8,852.5,281.7,749.2,280.6z"/>
</g>
<g id="Camada_9">
	<circle class="st8" cx="904.3" cy="409.8" r="97.9"/>
</g>
<g id="Camada_10">
	<path class="st9" d="M869.8,389.4c-0.4-3.3,1.8-6.5,5-7.2c5.3-1.2,11.9-3.7,17.5-8.8c7.5-6.8,12.1-17.4,13.8-21.2c0,0,0,0,0,0
		c0.5-0.2,3-1.1,5.8,0.1c2.7,1.2,3.6,3.8,4,5.2c0.1,0.5,0.2,1,0.2,1.5c0,19.5-0.3,39.1-0.7,59c-0.1,4.8-0.2,9.5-0.4,14.2
		c0.3,2,1.5,3.6,3.1,4c0.6,0.2,1.2,0.1,1.7,0c0.5-0.1,1-0.2,1.5-0.2l14.2-0.1c2.4,0,4.6,1.2,5.8,3.3c0.7,1.3,1.3,2.9,1.4,4.8
		c0.1,3.6-1.7,7.1-4.8,9.3c-1.1,0.8-2.4,1.2-3.7,1.2l-54.5,0.2c-2.7,0-5.1-1.6-6.1-4c-0.6-1.6-1-3.6-0.6-5.8
		c0.7-4.3,3.7-6.8,5.5-7.9c0.7-0.5,1.5-0.8,2.4-0.9c7.6-1.2,11.4-0.9,13.5-0.3c0.5,0.1,1.8,0.6,2.7-0.1c1-0.7,0.9-2.5,0.6-4
		c-0.1-0.4-0.1-0.8-0.1-1.2c0.3-11,0.6-22,0.9-32.9c0.1-5-5-8.3-9.5-6.1c-0.7,0.4-1.5,0.7-2.2,1c-2.8,1.3-5.5,2.3-8,3.2
		c-4,1.4-8.3-1.4-8.7-5.6c0,0,0-0.1,0-0.1C869.8,389.7,869.8,389.6,869.8,389.4z"/>
</g>
<g id="Camada_11">
	<path class="st10" d="M1258.7,764.8c-8.8,7-22,16.1-39.8,23c-17.3,6.8-32.7,9.2-43.7,10.1c-4.7,1.5-8.1,5.7-8.6,10.6
		c-0.5,5.1,2.1,10,6.7,12.4c67,0,134.1,0,201.1,0c0.7-1.3,3.3-6.4,1.4-11.9c-2.2-6.7-10.2-11.2-19.2-10.1
		c-19.7-2.9-33-9.6-41.8-15.4c-14-9.3-22-20.1-37.4-21.6C1269.7,761.2,1263.1,763.1,1258.7,764.8z"/>
	<path class="st11" d="M1252,712.5c2.3,1.6,9.1,5.9,18.7,5.8c9.1-0.1,15.4-4.1,17.8-5.8c-2.5,4.9-7.6,16.2-6.7,31.2
		c1.1,17.5,9.6,29.4,13,33.6c1.2,3.9,0.5,6.4,0,7.7c-2.6,6.8-13.8,7.5-22.6,8.2c-10.4,0.7-22.3,1.6-25.4-4.8c-0.5-1-2.3-5.1,2.4-13
		c3.1-5.2,8-15.2,9.1-28.8C1259.5,730.5,1254.6,718.1,1252,712.5z"/>
	<path class="st12" d="M1162.2,533.4c-3.3-0.4-27.7-2.9-44.2,14.4c-20.3,21.3-9.6,52.7-8.2,56.6c9.6,26.8,39,45.2,73.9,46.1
		c-0.6-6.7-1.3-13.4-1.9-20.2c-2.7,0.5-23.6,4.4-40.8-10.1c-15-12.6-16.4-30.2-16.8-35c-0.6-7-1.3-16.2,4.3-24
		c7.2-9.8,21.9-13.6,37.4-10.1C1164.8,545.3,1163.5,539.4,1162.2,533.4z"/>
	<path class="st12" d="M1371.1,538c3.3-0.4,27.7-2.9,44.2,14.4c20.3,21.3,9.6,52.7,8.2,56.6c-9.6,26.8-39,45.2-73.9,46.1
		c0.6-6.7,1.3-13.4,1.9-20.2c2.7,0.5,23.6,4.4,40.8-10.1c15-12.6,16.4-30.2,16.8-35c0.6-7,1.3-16.2-4.3-24
		c-7.2-9.8-21.9-13.6-37.4-10.1C1368.5,549.8,1369.8,543.9,1371.1,538z"/>
	<path class="st13" d="M1161,524.8c-2,34.2,2.1,61.9,6.2,80.6c8.1,36.7,13.6,61.9,35,79.2c11,8.9,14.2,15.4,45.1,26.4
		c8.8,3.1,13.2,9,21.6,10.1c11.9,1.6,23-3.3,34.6-11c34.3-23.1,53.4-58.5,54.2-60c25.8-49.1,24.2-98.4,21.6-122.9
		C1306.6,526.4,1233.8,525.6,1161,524.8z"/>
	<circle class="st14" cx="1270.5" cy="610" r="58.8"/>
	<path class="st15" d="M1248.2,587.7c1.8-7.7,12.1-10.7,13.4-11c8.2-2.3,23-1.9,27.8,8.6c3.1,6.7,1,15.5-4.8,22.1
		c1.1,0.8,9.2,7,9.1,16.3c0,10-9.3,19.8-22.6,21.1c-9.6,0.9-16.3-5.4-17.3-6.2c-7.2-6.6-7.6-15.3-7.7-16.8c4.3-0.2,8.6-0.3,13-0.5
		c0.1,6.9,5.2,12.2,11,12.5c4.9,0.2,9.8-3.1,11-7.7c1.7-6.2-4.2-11.8-8.6-13.9c-5.6-2.7-11.1-1-12.5-0.5c-1.9-1.7-2.2-4.6-1-6.7
		c1.3-2.1,3.9-3.1,6.2-2.4c8.4,0,14.4-5.8,14.4-11.5c0-3.9-2.7-8.2-6.2-9.1c-5.1-1.3-12.7,4.3-15.8,15.4c-0.5,0.2-4.3,1.6-7.2-0.5
		C1246.8,594.1,1248.1,588.2,1248.2,587.7z"/>
</g>
<g id="Camada_12">
	<path class="st16" d="M524.6,727.5c-8.8,7.3-22,16.7-39.8,24c-17.3,7-32.7,9.6-43.7,10.5c-4.7,1.6-8.1,5.9-8.6,11
		c-0.5,5.3,2.1,10.4,6.7,12.9c67,0,134.1,0,201.1,0c0.7-1.4,3.3-6.7,1.4-12.4c-2.2-6.9-10.2-11.7-19.2-10.5c-19.7-3.1-33-10-41.8-16
		c-14-9.7-22-21-37.4-22.5C535.6,723.7,529,725.7,524.6,727.5z"/>
	<path class="st17" d="M517.9,673c2.3,1.7,9.1,6.2,18.7,6c9.1-0.1,15.4-4.3,17.8-6c-2.5,5.1-7.6,16.9-6.7,32.5
		c1.1,18.3,9.6,30.6,13,35c1.2,4,0.5,6.7,0,8c-2.6,7.1-13.8,7.8-22.6,8.5c-10.4,0.8-22.3,1.7-25.4-5c-0.5-1.1-2.3-5.3,2.4-13.5
		c3.1-5.4,8-15.9,9.1-30C525.4,691.8,520.5,678.9,517.9,673z"/>
	<path class="st18" d="M428.1,486.5c-3.3-0.4-27.7-3-44.2,15c-20.3,22.2-9.6,54.9-8.2,59c9.6,27.9,39,47.1,73.9,48
		c-0.6-7-1.3-14-1.9-21c-2.7,0.6-23.6,4.6-40.8-10.5c-15-13.1-16.4-31.4-16.8-36.5c-0.6-7.3-1.3-16.9,4.3-25
		c7.2-10.2,21.9-14.2,37.4-10.5C430.7,498.8,429.4,492.7,428.1,486.5z"/>
	<path class="st18" d="M637,491.3c3.3-0.4,27.7-3,44.2,15c20.3,22.2,9.6,54.9,8.2,59c-9.6,27.9-39,47.1-73.9,48c0.6-7,1.3-14,1.9-21
		c2.7,0.6,23.6,4.6,40.8-10.5c15-13.1,16.4-31.4,16.8-36.5c0.6-7.3,1.3-16.9-4.3-25c-7.2-10.2-21.9-14.2-37.4-10.5
		C634.4,503.6,635.7,497.4,637,491.3z"/>
	<path class="st19" d="M426.9,477.5c-2,35.6,2.1,64.4,6.2,84c8.1,38.2,13.6,64.5,35,82.5c11,9.2,14.2,16,45.1,27.5
		c8.8,3.3,13.2,9.3,21.6,10.5c11.9,1.7,23-3.4,34.6-11.5c34.3-24,53.4-60.9,54.2-62.5c25.8-51.1,24.2-102.5,21.6-128
		C572.5,479.2,499.7,478.3,426.9,477.5z"/>
	<ellipse class="st20" cx="536.3" cy="580.6" rx="58.8" ry="61.3"/>
</g>
<g id="Camada_8">
	<path class="st8" d="M767.2,302.6c-1.8,20.1-2.2,47.9,4.3,79.9c4.9,24.2,12.4,44.3,19.4,59.8c1.6,4.2,6.4,6.1,10.1,4.3
		c3.8-1.8,5.4-6.9,2.9-10.8c-7.2-12.2-15.7-29.6-20.9-51.8c-8.1-34.5-4.3-63.8-0.7-80.6c0.4-4.9-3.7-8.8-7.9-8.6
		C770.6,294.8,767.3,298.2,767.2,302.6z"/>
	<path class="st8" d="M798.9,459.5c7.4,11,14.9,22.1,22.3,33.1c3.1,2.5,7.5,2.4,10.1,0c3-2.8,3-8.3-0.7-11.5
		c-6.6-2.6-9.8-6.1-11.5-8.6c-4.8-7.2-2.1-13.6-7.9-18.7c-0.5-0.4-5.6-4.9-9.4-2.9C799.4,452.2,798.3,455.6,798.9,459.5z"/>
	<path class="st21" d="M1177.4,545.2c-1.3,13.1-1.5,31.2,3,52.1c3.4,15.8,8.5,28.9,13.4,39c1.1,2.7,4.4,3.9,7,2.8
		c2.6-1.2,3.7-4.5,2-7c-5-7.9-10.8-19.3-14.4-33.8c-5.6-22.5-3-41.6-0.5-52.6c0.2-3.2-2.5-5.8-5.5-5.6
		C1179.7,540.1,1177.4,542.3,1177.4,545.2z"/>
	<path class="st21" d="M1201.1,657.6c3.7,7.3,7.4,14.6,11.2,21.8c1.6,1.7,3.8,1.6,5,0c1.5-1.9,1.5-5.5-0.4-7.6
		c-3.3-1.7-4.9-4-5.8-5.7c-2.4-4.7-1.1-8.9-4-12.3c-0.2-0.3-2.8-3.2-4.7-1.9C1201.4,652.8,1200.8,655.1,1201.1,657.6z"/>
	<path class="st22" d="M443.8,501.3c-1.3,13.1-1.5,31.2,3,52.1c3.4,15.8,8.5,28.9,13.4,39c1.1,2.7,4.4,3.9,7,2.8
		c2.6-1.2,3.7-4.5,2-7c-5-7.9-10.8-19.3-14.4-33.8c-5.6-22.5-3-41.6-0.5-52.6c0.2-3.2-2.5-5.8-5.5-5.6
		C446.1,496.2,443.8,498.5,443.8,501.3z"/>
	<path class="st22" d="M467.5,613.7c3.7,7.3,7.4,14.6,11.2,21.8c1.6,1.7,3.8,1.6,5,0c1.5-1.9,1.5-5.5-0.4-7.6
		c-3.3-1.7-4.9-4-5.8-5.7c-2.4-4.7-1.1-8.9-4-12.3c-0.2-0.3-2.8-3.2-4.7-1.9C467.8,608.9,467.3,611.2,467.5,613.7z"/>
	<path class="st23" d="M511.9,566.4c-0.8-6.8,3-13.3,6.5-16.6c7.6-7.2,22.2-7.2,36,0.7c3.9,4.5,5.3,8.6,5.8,11.5
		c2.3,14-10.2,30.6-31.7,40.3c9.8,0,19.7,0,29.5,0c1.1,1,5.2,4.7,4.3,7.9c-1,3.6-8.1,6.2-18,4.3c-11,0.2-22.1,0.5-33.1,0.7
		c-0.5-1.7-1.5-5.9,0-10.8c2.5-7.9,9.7-11,10.8-11.5c6.8-5.7,13.6-11.5,20.4-17.2c3.6-4.8,2.7-11.6-1.7-15.2
		c-4.1-3.3-10.4-3.1-14.4,0.7c1.6,4,0.7,8.3-2.2,10.8c-2.2,1.9-5.9,3-8.6,1.4C512.5,571.9,512.1,568.1,511.9,566.4z"/>
	<path class="st24" d="M708.4,585.9c-0.7-2.1,9.4-4.2,16.2-13c8.2-10.5,6.3-23.7,8.6-23.8c2.4,0,0.8,13.3,9.7,22.7
		c6.8,7.2,15.4,7.6,15.1,10.8c-0.3,3.9-13.3,2.5-18.4,10.8c-4.4,7.1-0.4,17.1-1.1,17.3c-0.9,0.2-1.1-16.7-10.8-22.7
		C719.8,583.1,709.1,588.1,708.4,585.9z"/>
	<path class="st24" d="M1040.3,87.3c-0.7-2.1,9.4-4.2,16.2-13c8.2-10.5,6.3-23.7,8.6-23.8c2.4,0,0.8,13.3,9.7,22.7
		c6.8,7.2,15.4,7.6,15.1,10.8c-0.3,3.9-13.3,2.5-18.4,10.8c-4.4,7.1-0.4,17.1-1.1,17.3c-0.9,0.2-1.1-16.7-10.8-22.7
		C1051.7,84.5,1041,89.5,1040.3,87.3z"/>
	<path class="st24" d="M722,214.7c-0.7-2.1,9.4-4.2,16.2-13c8.2-10.5,6.3-23.7,8.6-23.8c2.4,0,0.8,13.3,9.7,22.7
		c6.8,7.2,15.4,7.6,15.1,10.8c-0.3,3.9-13.3,2.5-18.4,10.8c-4.4,7.1-0.4,17.1-1.1,17.3c-0.9,0.2-1.1-16.7-10.8-22.7
		C733.4,211.9,722.7,216.9,722,214.7z"/>
	<path class="st24" d="M1065.1,502.1c-0.7-2.1,9.4-4.2,16.2-13c8.2-10.5,6.3-23.7,8.6-23.8c2.4,0,0.8,13.3,9.7,22.7
		c6.8,7.2,15.4,7.6,15.1,10.8c-0.3,3.9-13.3,2.5-18.4,10.8c-4.4,7.1-0.4,17.1-1.1,17.3c-0.9,0.2-1.1-16.7-10.8-22.7
		C1076.5,499.3,1065.8,504.3,1065.1,502.1z"/>
	<path class="st24" d="M917.7,204.8c-0.7-2.1,9.4-4.2,16.2-13c8.2-10.5,6.3-23.7,8.6-23.8c2.4,0,0.8,13.3,9.7,22.7
		c6.8,7.2,15.4,7.6,15.1,10.8c-0.3,3.9-13.3,2.5-18.4,10.8c-4.4,7.1-0.4,17.1-1.1,17.3c-0.9,0.2-1.1-16.7-10.8-22.7
		C929.1,202,918.4,207,917.7,204.8z"/>
</g>
<g id="Camada_15">
	<path class="st25" d="M824.4,277.3c-9.7,5-17.5,6.1-23.1,6.1c-5.1,0-7.3-1-11.8,0.3c-7.2,2-7.9,6.3-15.2,9.8
		c-8.9,4.2-17.9,2.8-18,2.1c-0.1-0.6,6.5-0.8,12.8-5.6c3.4-2.6,7.8-7.5,6.7-9.6c-1.5-2.8-12.9-0.9-21.6,4.1
		c-6.1,3.5-8.8,7.2-9.5,6.6c-0.9-0.8,2.5-8.8,9.6-13.5c5.3-3.5,10.7-3.9,13.7-4.2c4.2-0.3,5.7,0.4,17,2.2c7.9,1.3,11.8,1.9,12.9,1.9
		c10.4-0.4,15.1-6,21.8-3.5C822,274.8,823.5,276.3,824.4,277.3z"/>
</g>
<g id="Camada_13">
	<path class="st26" d="M922,618.6c-0.1-0.7,8.7-1.1,17.7-8.4c1.9-1.5,8.6-7,7.4-9.8c-1.9-4.3-19.8,5.1-36.7-2.8
		c-2.6-1.2-11.8-5.5-13.5-13.5c-2.2-10.4,9.7-20.5,16.3-26c6-5.1,18.4-13.9,38.6-17.2c12.2-3,21.3-7.2,27.4-10.7
		c7.2-4.1,8.5-5.9,8.4-7.4c-0.4-4.7-14.8-7.1-19.5-7.9c-30-5-105.2,21.1-144.5,35.8c-1.8,0.4-25.1,5.5-42.7-11.1
		c-13-12.2-17.6-31.3-11.8-48.8c-4,0.1-44.2,0.1-69-33.4c-20.6-27.9-15.6-58.7-14.6-64.1c0.5-3,2.8-16.4,12.5-32.8
		c17-28.6,29.6-48.9,42.5-58.9c3.1-2.4,7.6-0.1,7.4,3.8c-0.7,13.7,3,33.2,3.1,56.5c0,15,12.1,41.3,1,37.6
		c14.2,15.4,39.7,12.7,66.9,14.6c55.1,3.9,98.6-12.4,121.3-23c30.3-10.5,60.6-20.9,90.9-31.4c8.2-1.9,20.6-3.7,35.5-2.1
		c13.4,1.5,24.1,5.2,31.4,8.4c3.5,5,7.6,12.4,9.4,22c5.3,28.6-14.7,51.1-17.8,54.4c-10,11.2-26.8,26.9-51.6,37.7
		c-9.3,4-18,6.6-25.8,8.3c8.4-9.3,14.3-25.8,27.6-40.9c9.7-11,10.8-27.1,13.2-37.5c-23,7.8-47.1,16.8-72.1,27.2
		c-29.4,12.2-56.6,24.9-81.5,37.6c-39.1,15.1-63.2,17.6-78.4,16.7c-3.8-0.2-13.5-1-14.6,2.1c-1.3,3.7,10,12.2,19.9,15.7
		c18.5,6.5,35.2-3.2,55.4-11.5c16.4-6.8,73.8-30.4,119.4-12.5c7.8,3.1,21.7,8.7,24.8,20.9c3.1,11.9-4.9,26.4-19.9,37.6
		c-20.9,7.8-52.8,19.8-74.2,29.3c-1.2,0.5-11.1,4.9-10.5,7.3c0.5,2,7.5,0.8,18.8,3.1c8.3,1.7,13.6,2.9,16.7,7.3
		c3.5,5,2.9,12.6,0,17.8C948.7,622.6,922.2,619.8,922,618.6z"/>
	<path class="st26" d="M970,296.6c30-2.9,30.9-5.5,42.5-5c18.9,0.7,20.2,7.6,36.2,6.4c10.3-0.8,27.2-5,28-11.9
		c1.2-10.2-35.3-11.8-80.5-43.4c-40.1-27.9-50.4-36-50.4-36c-13.4-10.5-18.4-15.3-27.5-16.1c-16.1-1.5-20.2,11.8-46.4,25.3
		c-27.5,14.2-47.6,12.3-55.6,25.8c-6.5,11-7.5,22.9-7.5,22.9c-0.4,1.9-0.4,3.6-0.2,5.2c3.8,23,68.5,28.8,75.8,29.4
		c19.9,0.5,44.9,0.5,69.3-1.2C963.1,297.3,970,296.6,970,296.6z"/>
</g>
<g id="Camada_14">
	<path class="st26" d="M910.8,202.3c7.5-20.3,82-9.7,112.7-2.9c1.5,0.3,35.4,8.2,67.1,32.4c12.3,9.4,21.7,19.3,19.8,28.1
		c-1.1,5.3-9.8,26-9.6,18.1c0-1-1.1,10.4-6,16.4c-14.3,17.5-32.4,37.3-37.3,33.6c-3.9-3,7.4-16.8,1.2-26c-5.3-7.8-19.4-6.8-23.1-6.7
		C991.9,296.7,901.8,226.9,910.8,202.3z"/>
</g>
<g id="Camada_16">
	<path class="st27" d="M876.8,235.5c-0.6-1.8,3.9-5,7.3-6.6c4.5-2.1,11-3.3,11.9-1.5c1,2-4.9,8.1-11.8,9.3
		C881.4,237.2,877.3,237.1,876.8,235.5z"/>
</g>
</svg>
