<?xml version="1.0" encoding="utf-8"?>
<!-- Generator: Adobe Illustrator 26.0.2, SVG Export Plug-In . SVG Version: 6.00 Build 0)  -->
<svg version="1.1" xmlns="http://www.w3.org/2000/svg" xmlns:xlink="http://www.w3.org/1999/xlink" x="0px" y="0px"
	 viewBox="0 0 1366 768" style="enable-background:new 0 0 1366 768;" xml:space="preserve">
<style type="text/css">
	.st0{display:none;}
	.st1{display:inline;fill:none;stroke:#FF0000;stroke-miterlimit:10;}
	.st2{opacity:0.44;fill:#65376D;}
	.st3{fill:#240A52;}
	.st4{fill:#C2A0D7;}
	.st5{opacity:0.36;fill:#C2A0D7;}
	.st6{fill:#B034B4;}
</style>
<g id="Camada_1">
</g>
<g id="Camada_3" class="st0">
	<rect x="115.5" y="226.5" class="st1" width="512" height="436"/>
	<path class="st1" d="M397.5,545.5h-184c-9.4,0-17-7.6-17-17l0,0c0-9.4,7.6-17,17-17h184c9.4,0,17,7.6,17,17l0,0
		C414.5,537.9,406.9,545.5,397.5,545.5z"/>
	<rect x="683.5" y="275.5" class="st1" width="168" height="56"/>
	<rect x="872.5" y="275.5" class="st1" width="139" height="56"/>
	<rect x="683.5" y="366.5" class="st1" width="168" height="63"/>
	<rect x="872.5" y="366.5" class="st1" width="147" height="66"/>
	<path class="st1" d="M1252.5,573.5h-108c-38.1,0-69-30.9-69-69v-214c0-38.1,30.9-69,69-69h108c38.1,0,69,30.9,69,69v214
		C1321.5,542.6,1290.6,573.5,1252.5,573.5z"/>
</g>
<g id="Camada_5" class="st0">
	<path class="st2" d="M-747,767.5c0-34.8,0-69.7,0-104.5c35.7,15.3,66.8,26.1,89.7,33.4c48.5,15.4,73.3,23.1,100.5,21.1
		c39-2.8,39.2-18.1,75.8-18.9c35.9-0.8,41.9,13.9,94.3,18.9c13.6,1.3,30.2,0.9,63.4,0c62.9-1.6,70-5.8,97.4-2.2
		c31.9,4.2,27.8,10.7,63.4,16.7c14.1,2.4,53.8,8.7,98.9,0c41.8-8.1,45.7-20.8,71.1-18.9c32.4,2.4,35.7,23.7,69.6,31.1
		c35.2,7.7,53.9-10.5,103.6-18.9c61.1-10.3,68.2,11.2,157.7,12.2c81.2,0.9,89.9-16.7,170.1-12.2c54.2,3,55.3,11.3,106.7,14.5
		c74.8,4.5,95.2-11.8,176.2-18.9c110.1-9.7,109.7,17.2,230.3,8.9c96.6-6.6,106.8-24.5,163.9-14.5c55.6,9.8,91.3,34.8,131.4,22.2
		c26.4-8.3,36.8-27.2,46.4-24.5c10.7,3.1,6.6,29,0,54.5C659.8,767.5-43.6,767.5-747,767.5z"/>
	
		<image style="display:inline;overflow:visible;" width="563" height="375" xlink:href="ebaa84384e9acebc77c7a0cbfcd1d3f6.jpg"  transform="matrix(1 0 0 1 835 -375)">
	</image>
	
		<image style="display:inline;overflow:visible;" width="563" height="375" xlink:href="5219f8b306f950f61b3ba732f78c81b4.jpg"  transform="matrix(3.1385 0 0 2.7493 -199 -133)">
	</image>
	
		<image style="display:inline;overflow:visible;" width="564" height="564" xlink:href="f07313fe23266fc336015d81b6e798a0.jpg"  transform="matrix(2.477 0 0 1.8404 -1687 -97)">
	</image>
</g>
<g id="Camada_6">
	<path class="st3" d="M-72.8,660.8"/>
	<path class="st4" d="M264.9,1.1c11.5,58.8,4.2,99.6-5,126.5c-14.4,41.8-34.2,52-57,104.1c-21.2,48.5-26.9,91.8-29.5,112
		c-11.2,85.9,14.7,108.3,23,207.5c8.5,101.4-7.3,214.2-25.8,221.9c-4,1.7-9.3-1-39.6-76c-32.3-79.9-48.4-120.4-47.4-145.6
		c2.4-56.9,29.8-65.4,47.5-162c5.2-28.4,11.4-62.1,9.4-104c-2.2-46.1-12.6-65.9-15.7-125.6c-1.3-25.9-0.7-47.6,0-61.5
		C171.4,66,218.1,33.6,264.9,1.1z"/>
	<path class="st4" d="M122.5,1132.9c-2.8-2.9-6,2.8-11.6,11.9c-37.2,61-33.6,40.5-51.3,76.2c-10.3,20.7-28.4,57.8-40.9,119.8
		c-4.3,21.3-6.9,40.4-8.5,54.6c23.2-18.9,46.5-37.8,69.7-56.7c9-10.7,20.8-28.1,30-55.7C129.7,1224.2,130.9,1141.8,122.5,1132.9z"/>
</g>
<g id="Camada_7">
	<path class="st4" d="M1540,310"/>
	<path class="st5" d="M288.6,14.2c6.4,20.5,12.9,68.1,4,110.6c-5.4,25.9-15.2,42.8-34.9,76.7c-22.9,39.4-29.4,39.5-41.2,65
		c-19,40.8-23.5,86.1-25,101c-6.6,66.2,9.7,89.1,22.2,195.1c9.9,83.6,18.7,157.3-2.6,213c-17.6,46.1-41.4,21.7-60.4,64.8
		c-17.8,40.4-12.5,105.5-1.2,234.2c9.1,103.9,16.2,121.3,9.6,165.6c-10.2,68.6-39.5,109.8-47,120.4c-24.6,34.6-51.3,47.7-73.8,58.8
		c-14.5,7.1-27.1,13.3-33.3,12.3C-67.5,1419.8-234.6,281.9,8,13.8C100.7-88.6,261.2-73.3,288.6,14.2z"/>
</g>
<g id="Camada_4">
	<path class="st6" d="M-128.5,1499.4c40-86.3,70.7-103.3,91.6-102.1c9.2,0.5,20.8,4.8,36.9-3.4c26.2-13.2,41.8-48,44.8-54.8
		c13.5-31,9-45,21.4-67.8c13.4-24.7,25.8-21.2,43.3-35.1c38.7-30.7,64.8-116.5,58.5-182.7c-3.4-36.2-13.8-38.2-23.2-76.1
		c-23.5-94.8,24.8-148.7,28.3-287.9c2.9-114.8-28.6-131.5-22.1-271.9c3.4-73.4,14.3-116.8,32.2-145c15.6-24.6,27.1-22.8,39.8-39.1
		c19.9-25.6,36.4-87.5,20.4-247.6c-122.8-3.2-245.6-6.4-368.5-9.6C-126.2,484-127.4,991.7-128.5,1499.4z"/>
	<path class="st3" d="M1414.3,148"/>
	<path class="st4" d="M1104.4,821.2c-14-58.3-8.4-99.4-0.3-126.6c12.6-42.3,32-53.4,52.7-106.4c19.2-49.3,23-92.9,24.8-113.1
		c7.6-86.3-19.2-107.6-31.6-206.4c-12.7-100.9-1.7-214.3,16.5-222.8c3.9-1.8,9.3,0.6,42.7,74.3c35.6,78.5,53.4,118.2,53.4,143.5
		c0,57-27,66.6-40.7,163.8c-4,28.6-8.8,62.5-5,104.3c4.1,45.9,15.4,65.4,20.9,124.8c2.4,25.8,2.7,47.5,2.5,61.5
		C1195.1,752.5,1149.8,786.8,1104.4,821.2z"/>
	<path class="st5" d="M1080.1,809.1c-7.3-20.2-15.7-67.5-8.6-110.4c4.3-26.1,13.4-43.4,31.7-78c21.2-40.3,27.7-40.7,38.5-66.7
		c17.3-41.6,19.9-87,20.8-101.9c3.9-66.5-13.4-88.6-30.4-194c-13.4-83.1-25.2-156.4-6.3-212.9c15.7-46.8,40.4-23.4,57.6-67.3
		c16.1-41.1,8.1-106-8.5-234c-13.4-103.4-21.2-120.5-16.4-165c7.4-69,34.9-111.3,42-122.2c23.1-35.5,49.2-49.8,71.3-61.8
		c14.1-7.7,26.5-14.5,32.8-13.7c72.8,8.7,287.2,1138.6,56,1416.7C1272.2,904,1111.2,895.4,1080.1,809.1z"/>
	<path class="st6" d="M1435-692.2c-36.3,87.9-66.3,106.1-87.3,105.8c-9.2-0.1-21-3.9-36.7,4.9c-25.6,14.3-39.8,49.7-42.4,56.7
		c-12.2,31.5-7.1,45.4-18.6,68.6c-12.4,25.2-24.9,22.3-41.8,36.9c-37.4,32.3-59.8,119.1-50.8,185c4.9,36,15.4,37.6,26.4,75.1
		c27.4,93.7-18.6,149.6-16.2,288.8c1.9,114.8,34.1,130.2,33.4,270.7c-0.4,73.5-9.4,117.3-26.1,146.3c-14.6,25.3-26.1,23.9-38.1,40.7
		c-18.8,26.4-32.7,89-10.1,248.2c122.8-1.9,245.7-3.9,368.5-5.8C1475.1,322.4,1455-184.9,1435-692.2z"/>
</g>
</svg>
