<?xml version="1.0" encoding="utf-8"?>
<!-- Generator: Adobe Illustrator 26.0.2, SVG Export Plug-In . SVG Version: 6.00 Build 0)  -->
<svg version="1.1" xmlns="http://www.w3.org/2000/svg" xmlns:xlink="http://www.w3.org/1999/xlink" x="0px" y="0px"
	 viewBox="0 0 1366 768" style="enable-background:new 0 0 1366 768;" xml:space="preserve">
<style type="text/css">
	.st0{fill:#65376D;stroke:#000000;stroke-miterlimit:10;}
	.st1{display:none;}
	.st2{display:inline;fill:none;stroke:#FF0000;stroke-miterlimit:10;}
	.st3{fill:#FCBFFF;}
	.st4{font-family:'CooperBlack';}
	.st5{font-size:47.8943px;}
	.st6{display:none;opacity:0.44;fill:#65376D;}
	.st7{opacity:0.44;fill:#65376D;}
</style>
<g id="Camada_1">
</g>
<g id="Camada_2">
	<path class="st0" d="M-120-63.5c9.1,26.2,32.5,80.2,90.6,123c91.6,67.4,203.8,58.6,234.9,55c93.7-10.9,95-49.8,209.2-69
		c42.8-7.2,117.3-19.7,196.9,6c83.7,27.1,90.3,69.8,153.2,86c93.3,24,133.3-78.2,233.8-70c92.4,7.5,111.5,89.7,183.4,93
		c53.9,2.5,128.8-39.6,226-224C898.7-63.5,389.3-63.5-120-63.5z"/>
</g>
<g id="Camada_3" class="st1">
	<rect x="115.5" y="226.5" class="st2" width="512" height="436"/>
	<path class="st2" d="M397.5,545.5h-184c-9.4,0-17-7.6-17-17l0,0c0-9.4,7.6-17,17-17h184c9.4,0,17,7.6,17,17l0,0
		C414.5,537.9,406.9,545.5,397.5,545.5z"/>
	<rect x="683.5" y="275.5" class="st2" width="168" height="56"/>
	<rect x="872.5" y="275.5" class="st2" width="139" height="56"/>
	<rect x="683.5" y="366.5" class="st2" width="168" height="63"/>
	<rect x="872.5" y="366.5" class="st2" width="147" height="66"/>
	<path class="st2" d="M1252.5,573.5h-108c-38.1,0-69-30.9-69-69v-214c0-38.1,30.9-69,69-69h108c38.1,0,69,30.9,69,69v214
		C1321.5,542.6,1290.6,573.5,1252.5,573.5z"/>
</g>
<g id="Camada_4">
	<text transform="matrix(1.0887 0 0 1 471.2676 98.4961)" class="st3 st4 st5">Jogo da cobrinha</text>
</g>
<g id="Camada_5">
	<path class="st6" d="M-747,767.5c0-34.8,0-69.7,0-104.5c35.7,15.3,66.8,26.1,89.7,33.4c48.5,15.4,73.3,23.1,100.5,21.1
		c39-2.8,39.2-18.1,75.8-18.9c35.9-0.8,41.9,13.9,94.3,18.9c13.6,1.3,30.2,0.9,63.4,0c62.9-1.6,70-5.8,97.4-2.2
		c31.9,4.2,27.8,10.7,63.4,16.7c14.1,2.4,53.8,8.7,98.9,0c41.8-8.1,45.7-20.8,71.1-18.9c32.4,2.4,35.7,23.7,69.6,31.1
		c35.2,7.7,53.9-10.5,103.6-18.9c61.1-10.3,68.2,11.2,157.7,12.2c81.2,0.9,89.9-16.7,170.1-12.2c54.2,3,55.3,11.3,106.7,14.5
		c74.8,4.5,95.2-11.8,176.2-18.9c110.1-9.7,109.7,17.2,230.3,8.9c96.6-6.6,106.8-24.5,163.9-14.5c55.6,9.8,91.3,34.8,131.4,22.2
		c26.4-8.3,36.8-27.2,46.4-24.5c10.7,3.1,6.6,29,0,54.5C659.8,767.5-43.6,767.5-747,767.5z"/>
	<path class="st7" d="M-563.5,49.7c21.5,13.6,53.5,31.7,96.5,48.6c56.8,22.3,97.9,38.5,147.9,37.9c96.3-1.2,136.5-63.1,188.4-48.9
		c32.7,9,20.3,34.5,71.9,70.5c20.9,14.6,59.6,41.6,104.1,39.8c64.5-2.6,71.2-62.7,144.1-75.9c47-8.5,62.3,13.3,171.4,37.4
		c86.2,19.1,152.5,33.7,225.9,22.3c96.4-14.9,112-60.2,183.6-55.2c64,4.4,67.3,41.6,129.3,45.7c86.4,5.8,117.6-63.8,196.1-58.7
		c82.6,5.4,98,85.7,175.4,83.5c56-1.6,77.7-44.5,135.4-38.1c36.5,4,44.9,23.1,80.3,24.2c36.9,1.1,68.8-18.3,90.1-35.1
		c-2.2-82.7-4.3-165.3-6.5-248c-712,14.6-1424,29.2-2136,43.7C-565-21.1-564.3,14.3-563.5,49.7z"/>
</g>
</svg>
